#N canvas 297 490 1019 417 10;
#N canvas 990 138 450 300 subpatch 0;
#X obj 68 87 metro 1000;
#X obj 71 34 loadbang;
#X msg 70 58 1;
#X connect 1 0 2 0;
#X connect 2 0 0 0;
#X restore 404 100 pd subpatch;
#X obj 52 61 r subpatch @hv_event;
#X msg 319 187 1;
#X obj 325 147 loadbang;
#X obj 324 272 print \$0;
#X obj 321 226 metro 1000;
#X msg 78 140 \; pd-subpatch obj 40 200 print sub;
#X obj 52 99 t b b;
#X msg 352 194 0;
#X msg 47 197 \; pd-subpatch connect 0 0 3 0;
#X connect 1 0 7 0;
#X connect 2 0 5 0;
#X connect 3 0 2 0;
#X connect 5 0 4 0;
#X connect 7 0 9 0;
#X connect 7 1 6 0;
#X connect 8 0 5 0;
