#N canvas 55 171 717 569 10;
#X floatatom 41 97 5 0 0 0 - - -, f 5;
#X text 317 104 velocity;
#X floatatom 275 80 5 0 0 0 - - -, f 5;
#X obj 275 111 > 0;
#X obj 42 439 *~;
#X obj 276 46 r velocity @hv_param 0 100 0;
#X obj 42 477 out~;
#X obj 130 403 r gain @hv_param 0 100 80;
#X text 326 133 do something more with this parameter;
#X obj 95 439 f;
#X obj 465 324 t b b;
#X msg 491 359 0;
#X obj 276 136 route 1;
#X obj 476 305 bng 15 250 50 0 empty empty empty 17 7 0 10 -262144
-1 -1;
#X obj 458 504 s done @hv_param;
#X obj 488 399 r id @hv_param 0 100 0;
#X obj 465 427 f;
#X obj 41 46 r frequency @hv_param 20 1000 30;
#X obj 476 475 print done;
#X msg 424 359 4;
#X msg 95 337 80;
#X obj 422 78 r duration @hv_param 0 1000 200;
#X obj 276 164 1, f 2;
#X obj 308 185 0, f 2;
#X text 82 98 freq;
#X msg 395 167 200;
#X obj 497 207 loadbang;
#X obj 497 233 0;
#X obj 309 160 del 300;
#X obj 426 165 r release @hv_param 0 1000 150;
#X obj 276 208 adsr-lin-slider~ 10 10 100 150;
#X obj 52 207 hv.osc square;
#X obj 69 149 sig~;
#X obj 114 174 r width @hv_param 1 3 1;
#X obj 462 108 r attack @hv_param 0 1000 10;
#X msg 380 80 1000;
#X connect 0 0 32 0;
#X connect 2 0 3 0;
#X connect 3 0 12 0;
#X connect 4 0 6 0;
#X connect 4 0 6 1;
#X connect 5 0 2 0;
#X connect 7 0 9 0;
#X connect 9 0 6 2;
#X connect 10 0 16 0;
#X connect 10 1 11 0;
#X connect 11 0 6 2;
#X connect 12 0 9 0;
#X connect 12 0 22 0;
#X connect 12 0 28 0;
#X connect 15 0 16 1;
#X connect 16 0 14 0;
#X connect 16 0 18 0;
#X connect 17 0 0 0;
#X connect 19 0 16 1;
#X connect 20 0 9 0;
#X connect 21 0 28 1;
#X connect 22 0 30 0;
#X connect 23 0 30 0;
#X connect 25 0 30 4;
#X connect 26 0 27 0;
#X connect 27 0 30 5;
#X connect 28 0 23 0;
#X connect 29 0 30 4;
#X connect 30 0 4 1;
#X connect 30 1 10 0;
#X connect 30 1 13 0;
#X connect 31 0 4 0;
#X connect 32 0 31 0;
#X connect 33 0 31 1;
#X connect 34 0 30 1;
#X connect 35 0 28 1;
