#N canvas 281 219 660 558 10;
#X floatatom 42 97 5 0 0 0 - - -, f 5;
#X text 317 104 velocity;
#X floatatom 275 80 5 0 0 0 - - -, f 5;
#X obj 88 251 osc~;
#X obj 275 111 > 0;
#X obj 93 399 *~;
#X obj 276 46 r velocity @hv_param 0 100 0;
#X obj 93 437 out~;
#X obj 195 359 r gain @hv_param 0 100 80;
#X text 326 133 do something more with this parameter;
#X obj 166 395 f;
#X obj 465 324 t b b;
#X msg 491 359 0;
#X obj 276 136 route 1;
#X obj 476 305 bng 15 250 50 0 empty empty empty 17 7 0 10 -262144
-1 -1;
#X obj 458 504 s done @hv_param;
#X obj 488 399 r id @hv_param 0 100 0;
#X obj 465 427 f;
#X text 83 98 base freq;
#X floatatom 126 213 5 0 0 0 - - -, f 5;
#X obj 101 130 + 1;
#X obj 101 156 t b f;
#X obj 88 185 * 1;
#X obj 42 46 r frequency @hv_param 20 1000 30;
#X obj 476 475 print done;
#X obj 276 208 adsr-lin-slider~ 10 10 100 150;
#X msg 425 349 4;
#X msg 155 279 80;
#X obj 422 78 r duration @hv_param 0 1000 200;
#X msg 409 156 200;
#X obj 276 164 1, f 2;
#X obj 308 185 0, f 2;
#X obj 308 165 del 200;
#X obj 120 75 r id @hv_param 0 100 0;
#X connect 0 0 22 0;
#X connect 2 0 4 0;
#X connect 3 0 5 0;
#X connect 4 0 13 0;
#X connect 5 0 7 0;
#X connect 5 0 7 1;
#X connect 6 0 2 0;
#X connect 8 0 10 0;
#X connect 10 0 7 2;
#X connect 11 0 17 0;
#X connect 11 1 12 0;
#X connect 12 0 7 2;
#X connect 13 0 10 0;
#X connect 13 0 30 0;
#X connect 13 0 32 0;
#X connect 16 0 17 1;
#X connect 17 0 15 0;
#X connect 17 0 24 0;
#X connect 20 0 21 0;
#X connect 21 0 22 0;
#X connect 21 1 22 1;
#X connect 22 0 19 0;
#X connect 22 0 3 0;
#X connect 23 0 0 0;
#X connect 25 0 5 1;
#X connect 25 1 11 0;
#X connect 25 1 14 0;
#X connect 26 0 17 1;
#X connect 26 0 20 0;
#X connect 27 0 10 0;
#X connect 28 0 32 1;
#X connect 29 0 32 1;
#X connect 30 0 25 0;
#X connect 31 0 25 0;
#X connect 32 0 31 0;
#X connect 33 0 20 0;
