#N canvas 591 250 630 536 10;
#X text 85 129 note;
#X floatatom 51 131 5 0 0 0 - - -, f 5;
#X text 309 131 velocity;
#X floatatom 272 131 5 0 0 0 - - -, f 5;
#X obj 52 212 osc~;
#X obj 51 172 mtof;
#X obj 258 205 > 0;
#X obj 72 433 *~;
#X obj 46 58 r note @hv_param 0 100 0;
#X obj 282 62 r velocity @hv_param 0 100 0;
#X obj 72 471 out~;
#X obj 184 397 r gain @hv_param 0 100 80;
#X text 321 184 do something more with this parameter;
#X obj 149 433 f;
#X obj 419 371 t b b;
#X msg 440 403 0;
#X msg 137 262 bang;
#X obj 175 307 route 1;
#X obj 487 355 bng 15 250 50 0 empty empty empty 17 7 0 10 -262144
-1 -1;
#X obj 255 242 adsr-lin-slider~ 10 10 100 100;
#X obj 408 470 s done @hv_param;
#X connect 1 0 5 0;
#X connect 3 0 6 0;
#X connect 4 0 7 0;
#X connect 5 0 4 0;
#X connect 6 0 17 0;
#X connect 6 0 19 0;
#X connect 7 0 10 0;
#X connect 7 0 10 1;
#X connect 8 0 1 0;
#X connect 9 0 3 0;
#X connect 11 0 13 0;
#X connect 13 0 10 2;
#X connect 14 0 20 0;
#X connect 14 1 15 0;
#X connect 15 0 10 2;
#X connect 16 0 13 0;
#X connect 17 0 13 0;
#X connect 19 0 7 1;
#X connect 19 1 14 0;
#X connect 19 1 18 0;
