#N canvas 621 197 1150 618 10;
#X obj 344 315 t b;
#X obj 344 259 f;
#X obj 344 343 f;
#X msg 388 343 0;
#X obj 344 287 moses 1, f 8;
#X obj 377 259 moses 1;
#X obj 168 427 dbtorms;
#X obj 96 73 inlet~;
#X msg 381 173 \; pd dsp 1;
#X obj 168 483 line~;
#X obj 96 511 *~;
#X obj 96 539 dac~, f 10;
#X floatatom 363 116 3 0 100 0 - - -, f 3;
#X obj 344 116 bng 15 250 50 0 empty empty M 5 8 0 9 -228856 -1 -1
;
#X obj 153 511 *~;
#X obj 363 72 r \$0-master-lvl;
#X obj 344 371 s \$0-master-lvl;
#X obj 363 146 s \$0-master-out;
#X obj 168 399 r \$0-master-out;
#X obj 359 229 r \$0-master-out;
#X obj 153 73 inlet~;
#X text 384 116 dB;
#X text 241 234 MUTE LOGIC;
#X text 108 53 AUDIO INPUTS;
#X text 216 428 Convert from dB to linear units;
#X text 230 455 Make a ramp to avoid clicks or zipper noise;
#X text 439 174 Automatically start DSP, f 13;
#X obj 388 315 t b;
#X obj 153 100 hip~ 5;
#X obj 96 100 hip~ 5;
#X obj 171 539 outlet~;
#X obj 39 539 outlet~;
#X text 157 26 Miller's output~.pd \, with minor adaptions.;
#X text 213 282 Test whether it's less than 1:, f 17;
#X text 214 253 Recall the previous value of master-lvl:, f 20;
#X text 213 309 If it is \, convert it to a bang:, f 17;
#X text 212 334 and recall the previous /nonzero/ value of master-lvl:
, f 20;
#X obj 168 455 pack f 50;
#X text 219 539 Additional post-attenuation outputs;
#X obj 495 278 outlet;
#X obj 500 78 inlet;
#X connect 0 0 2 0;
#X connect 1 0 4 0;
#X connect 2 0 16 0;
#X connect 3 0 16 0;
#X connect 4 0 0 0;
#X connect 4 1 27 0;
#X connect 5 1 2 1;
#X connect 6 0 37 0;
#X connect 7 0 29 0;
#X connect 9 0 14 1;
#X connect 9 0 10 1;
#X connect 10 0 11 0;
#X connect 10 0 31 0;
#X connect 12 0 8 0;
#X connect 12 0 17 0;
#X connect 12 0 39 0;
#X connect 13 0 1 0;
#X connect 14 0 11 1;
#X connect 14 0 30 0;
#X connect 15 0 12 0;
#X connect 18 0 6 0;
#X connect 19 0 1 1;
#X connect 19 0 5 0;
#X connect 20 0 28 0;
#X connect 27 0 3 0;
#X connect 28 0 14 0;
#X connect 29 0 10 0;
#X connect 37 0 9 0;
#X connect 40 0 12 0;
#X coords 0 0 1 1 60 35 1 340 100;
