#N canvas 293 185 1170 717 10;
#X obj 42 28 r freq @hv_param 0 2000 440;
#X obj 56 548 out~;
#X obj 140 509 r gain @hv_param 0 100 80;
#X floatatom 380 159 5 0 0 0 - - -, f 5;
#X floatatom 438 158 5 0 0 0 - - -, f 5;
#X obj 377 229 pack 0 0 0;
#X msg 309 98 clear;
#X text 373 28 incoming note with midi pitch and size;
#X msg 537 103 60 50;
#X msg 537 128 60 0;
#X text 578 128 0 means turn off;
#X text 577 100 second param represents note weight;
#X text 537 81 test;
#X msg 462 372 vis 1 1;
#X msg 460 407 vis 2 1;
#X msg 460 437 vis 3 1;
#X msg 461 465 vis 4 1;
#X msg 459 503 vis 5 1;
#X obj 379 198 poly 5;
#X obj 63 466 catch~ voices;
#X msg 533 194 62 50;
#X msg 533 219 62 0;
#X text 439 529 peek voices for debug;
#X obj 382 53 r note @hv_param 0 100 80;
#X msg 72 241 1 2;
#X obj 71 296 s get_array @hv_param;
#X obj 74 211 loadbang;
#X obj 308 271 print;
#X obj 381 119 unpack f f;
#X obj 372 311 clone -s 1 voice~ 5;
#X connect 2 0 1 2;
#X connect 3 0 18 0;
#X connect 4 0 18 1;
#X connect 5 0 27 0;
#X connect 5 0 29 0;
#X connect 6 0 18 0;
#X connect 8 0 28 0;
#X connect 9 0 28 0;
#X connect 13 0 29 0;
#X connect 14 0 29 0;
#X connect 15 0 29 0;
#X connect 16 0 29 0;
#X connect 17 0 29 0;
#X connect 18 0 5 0;
#X connect 18 1 5 1;
#X connect 18 2 5 2;
#X connect 19 0 1 0;
#X connect 19 0 1 1;
#X connect 20 0 28 0;
#X connect 21 0 28 0;
#X connect 23 0 28 0;
#X connect 24 0 25 0;
#X connect 26 0 24 0;
#X connect 28 0 3 0;
#X connect 28 1 4 0;
