#N canvas 1 106 761 623 10;
#X floatatom 281 216 6 1 5000 0 - #0-attack-numbox-set #0-attack-numbox-ctl
, f 6;
#X floatatom 281 235 6 1 5000 0 - #0-decay-numbox-set #0-decay-numbox-ctl
, f 6;
#X obj 144 62 inlet;
#X obj 217 62 inlet;
#X obj 174 216 hsl 101 15 0 1 0 0 \$0-attack-slider-ctl \$0-attack-slider-set
empty -2 -8 0 10 -228856 -1 -1 0 1;
#X obj 174 235 hsl 101 15 0 1 0 0 \$0-decay-slider-ctl \$0-decay-slider-set
empty -2 -8 0 10 -228856 -1 -1 0 1;
#X text 320 216 ms;
#X text 320 235 ms;
#X text 161 216 A;
#X text 161 235 D;
#X obj 304 62 inlet;
#X obj 144 216 tgl 15 0 empty empty empty 17 7 0 10 -228856 -1 -1 0
1;
#X obj 231 116 f \$1;
#X obj 231 89 loadbang;
#X obj 318 116 f \$2;
#X obj 318 89 loadbang;
#X text 303 45 Decay (ms);
#X text 215 45 Attack (ms);
#X text 146 45 Gate;
#X floatatom 281 254 6 0 100 0 - #0-sustain-set #0-sustain-ctl, f
6;
#X floatatom 281 273 6 1 5000 0 - #0-release-numbox-set #0-release-numbox-ctl
, f 6;
#X obj 174 254 hsl 101 15 0 100 0 0 \$0-sustain-ctl \$0-sustain-set
empty -2 -8 0 10 -228856 -1 -1 0 1;
#X obj 174 273 hsl 101 15 0 1 0 0 \$0-release-slider-ctl \$0-release-slider-set
empty -2 -8 0 10 -228856 -1 -1 0 1;
#X text 320 273 ms;
#X text 320 254 %;
#X text 161 254 S;
#X text 161 273 R;
#X obj 391 62 inlet;
#X obj 405 89 loadbang;
#X text 390 34 Sustain Level (%), f 9;
#X obj 405 116 f \$3;
#X obj 478 62 inlet;
#X obj 492 89 loadbang;
#X obj 492 116 f \$4;
#X text 477 45 Release (ms);
#X obj 144 143 clip 0 1;
#X obj 144 116 int;
#N canvas 705 23 347 420 setctl 0;
#X msg 54 323 set \$1;
#X obj 54 101 clip 0 1;
#X obj 54 241 pow 2;
#X text 96 32 slider-to-numbox;
#X msg 108 138 set \$1;
#X text 119 233 x is 0-1;
#X obj 54 269 + 1;
#X text 183 318 A float-only version for internal use, f 20;
#X text 193 346 float prepended by "set" for GUI use, f 18;
#X text 123 120 Update ourselves;
#X text 59 195 Update the numbox;
#X obj 108 166 s \$0-attack-slider-set;
#X obj 54 351 s \$0-attack-numbox-set;
#X obj 54 213 * 70.7036;
#X text 102 252 (70.7036x)^2 + 1;
#X obj 54 296 clip 1 5000;
#X obj 54 73 r \$0-attack-slider-ctl;
#X obj 109 323 s \$0-attack;
#X connect 0 0 12 0;
#X connect 1 0 4 0;
#X connect 1 0 13 0;
#X connect 2 0 6 0;
#X connect 4 0 11 0;
#X connect 6 0 15 0;
#X connect 13 0 2 0;
#X connect 15 0 0 0;
#X connect 15 0 17 0;
#X connect 16 0 1 0;
#X restore 498 227 pd setctl attack slider-to-numbox;
#N canvas 705 23 347 434 setctl 0;
#X msg 58 328 set \$1;
#X text 90 36 numbox-to-slider;
#X obj 58 246 sqrt;
#X msg 112 143 set \$1;
#X obj 58 218 - 1;
#X obj 58 301 clip 0 1;
#X text 183 356 float prepended by "set" for GUI use, f 18;
#X text 127 125 Update ourselves;
#X text 63 200 Update the slider;
#X obj 112 171 s \$0-attack-numbox-set;
#X obj 58 356 s \$0-attack-slider-set, f 20;
#X obj 58 274 / 70.7036;
#X obj 58 106 clip 1 5000;
#X obj 58 78 r \$0-attack-numbox-ctl;
#X obj 167 143 s \$0-attack;
#X connect 0 0 10 0;
#X connect 2 0 11 0;
#X connect 3 0 9 0;
#X connect 4 0 2 0;
#X connect 5 0 0 0;
#X connect 11 0 5 0;
#X connect 12 0 4 0;
#X connect 12 0 3 0;
#X connect 12 0 14 0;
#X connect 13 0 12 0;
#X restore 498 249 pd setctl attack numbox-to-slider;
#N canvas 705 23 347 420 setctl 0;
#X msg 54 323 set \$1;
#X obj 54 101 clip 0 1;
#X obj 54 241 pow 2;
#X text 96 32 slider-to-numbox;
#X msg 108 138 set \$1;
#X text 119 233 x is 0-1;
#X obj 54 269 + 1;
#X obj 108 166 s \$0-decay-slider-set;
#X obj 54 351 s \$0-decay-numbox-set;
#X text 176 317 A float-only version for internal use, f 20;
#X text 186 346 float prepended by "set" for GUI use, f 18;
#X text 123 120 Update ourselves;
#X text 59 195 Update the numbox;
#X obj 54 213 * 70.7036;
#X text 102 252 (70.7036x)^2 + 1;
#X obj 54 296 clip 1 5000;
#X obj 54 73 r \$0-decay-slider-ctl;
#X obj 109 323 s \$0-decay;
#X connect 0 0 8 0;
#X connect 1 0 4 0;
#X connect 1 0 13 0;
#X connect 2 0 6 0;
#X connect 4 0 7 0;
#X connect 6 0 15 0;
#X connect 13 0 2 0;
#X connect 15 0 0 0;
#X connect 15 0 17 0;
#X connect 16 0 1 0;
#X restore 498 276 pd setctl decay slider-to-numbox;
#N canvas 705 23 347 434 setctl 0;
#X msg 58 328 set \$1;
#X text 90 36 numbox-to-slider;
#X obj 58 246 sqrt;
#X msg 112 143 set \$1;
#X obj 58 218 - 1;
#X obj 58 301 clip 0 1;
#X text 177 356 float prepended by "set" for GUI use, f 18;
#X obj 112 171 s \$0-decay-numbox-set;
#X obj 58 356 s \$0-decay-slider-set, f 19;
#X text 127 125 Update ourselves;
#X text 63 200 Update the slider;
#X obj 58 106 clip 1 5000;
#X obj 58 274 / 70.7036;
#X obj 58 78 r \$0-decay-numbox-ctl;
#X obj 167 143 s \$0-decay;
#X connect 0 0 8 0;
#X connect 2 0 12 0;
#X connect 3 0 7 0;
#X connect 4 0 2 0;
#X connect 5 0 0 0;
#X connect 11 0 4 0;
#X connect 11 0 3 0;
#X connect 11 0 14 0;
#X connect 12 0 5 0;
#X connect 13 0 11 0;
#X restore 498 298 pd setctl decay numbox-to-slider;
#X obj 60 494 pack 1 f;
#X obj 190 440 del;
#X obj 190 494 pack f f;
#X obj 190 467 f, f 18;
#X obj 363 494 pack 0 f;
#X obj 295 405 / 100;
#X obj 190 549 outlet~;
#X msg 190 413 stop;
#X obj 60 313 route 1, f 51;
#X obj 60 340 t b b, f 14;
#X msg 141 367 0, f 2;
#X obj 141 494 spigot;
#X obj 190 521 vline~;
#N canvas 658 23 362 216 setctl 0;
#X obj 63 79 clip 0 100;
#X msg 63 106 set \$1;
#X obj 63 133 s \$0-sustain-set;
#X text 200 101 A float-only version for internal use, f 20;
#X text 168 129 float prepended by "set" for GUI use, f 18;
#X obj 63 52 r \$0-sustain-ctl;
#X obj 118 106 s \$0-sustain;
#X connect 0 0 1 0;
#X connect 0 0 6 0;
#X connect 1 0 2 0;
#X connect 5 0 0 0;
#X restore 498 325 pd setctl sustain;
#N canvas 686 23 347 420 setctl 0;
#X msg 54 323 set \$1;
#X obj 54 101 clip 0 1;
#X obj 54 241 pow 2;
#X text 96 32 slider-to-numbox;
#X msg 108 138 set \$1;
#X text 119 233 x is 0-1;
#X obj 54 269 + 1;
#X text 188 317 A float-only version for internal use, f 20;
#X text 198 346 float prepended by "set" for GUI use, f 18;
#X text 123 120 Update ourselves;
#X text 59 195 Update the numbox;
#X obj 54 213 * 70.7036;
#X text 102 252 (70.7036x)^2 + 1;
#X obj 54 296 clip 1 5000;
#X obj 54 73 r \$0-release-slider-ctl;
#X obj 108 166 s \$0-release-slider-set;
#X obj 109 323 s \$0-release;
#X obj 54 351 s \$0-release-numbox-set;
#X connect 0 0 17 0;
#X connect 1 0 4 0;
#X connect 1 0 11 0;
#X connect 2 0 6 0;
#X connect 4 0 15 0;
#X connect 6 0 13 0;
#X connect 11 0 2 0;
#X connect 13 0 0 0;
#X connect 13 0 16 0;
#X connect 14 0 1 0;
#X restore 498 352 pd setctl release slider-to-numbox;
#N canvas 725 23 347 449 setctl 0;
#X msg 58 328 set \$1;
#X text 90 36 numbox-to-slider;
#X obj 58 246 sqrt;
#X msg 112 143 set \$1;
#X obj 58 218 - 1;
#X obj 58 301 clip 0 1;
#X text 167 356 float prepended by "set" for GUI use, f 18;
#X text 127 125 Update ourselves;
#X text 63 200 Update the slider;
#X obj 58 106 clip 1 5000;
#X obj 58 274 / 70.7036;
#X obj 58 78 r \$0-release-numbox-ctl;
#X obj 167 143 s \$0-release;
#X obj 112 171 s \$0-release-numbox-set;
#X obj 58 356 s \$0-release-slider-set, f 17;
#X connect 0 0 14 0;
#X connect 2 0 10 0;
#X connect 3 0 13 0;
#X connect 4 0 2 0;
#X connect 5 0 0 0;
#X connect 9 0 4 0;
#X connect 9 0 3 0;
#X connect 9 0 12 0;
#X connect 10 0 5 0;
#X connect 11 0 9 0;
#X restore 498 374 pd setctl release numbox-to-slider;
#X obj 144 235 tgl 15 0 empty empty empty 17 7 0 10 -228856 -1 -1 0
1;
#X obj 591 89 loadbang;
#X obj 591 116 f \$3;
#X obj 565 62 inlet;
#X text 563 45 Retrigger;
#X obj 565 143 int;
#X obj 565 170 clip 0 1;
#X text 59 85 This toggle allows a bang to start/stop a sequence \,
but also allows floats to set the toggle state., f 13;
#X obj 144 89 tgl 15 0 empty empty empty 17 7 0 10 -262144 -1 -1 0
1;
#X obj 565 117 tgl 15 0 empty empty empty 17 7 0 10 -262144 -1 -1 0
1;
#X obj 426 549 outlet;
#X obj 426 494 del;
#X text 430 522 Envelope complete, f 8;
#X obj 363 340 t b;
#X msg 426 467 stop;
#X obj 217 143 s \$0-attack-numbox-ctl, f 10;
#X obj 304 143 s \$0-decay-numbox-ctl, f 10;
#X obj 391 143 s \$0-sustain-ctl, f 10;
#X obj 478 143 s \$0-release-numbox-ctl, f 11;
#X obj 408 367 r \$0-release, f 10;
#X obj 295 367 r \$0-sustain, f 10;
#X obj 235 367 r \$0-decay, f 8;
#X obj 74 367 r \$0-attack, f 9;
#X text 144 235 Re;
#X connect 2 0 65 0;
#X connect 3 0 72 0;
#X connect 10 0 73 0;
#X connect 11 0 49 0;
#X connect 12 0 72 0;
#X connect 13 0 12 0;
#X connect 14 0 73 0;
#X connect 15 0 14 0;
#X connect 27 0 74 0;
#X connect 28 0 30 0;
#X connect 30 0 74 0;
#X connect 31 0 75 0;
#X connect 32 0 33 0;
#X connect 33 0 75 0;
#X connect 35 0 11 0;
#X connect 36 0 35 0;
#X connect 41 0 53 0;
#X connect 42 0 44 0;
#X connect 43 0 53 0;
#X connect 44 0 43 0;
#X connect 45 0 53 0;
#X connect 46 0 44 1;
#X connect 48 0 42 0;
#X connect 49 0 50 0;
#X connect 49 1 70 0;
#X connect 50 0 41 0;
#X connect 50 0 42 0;
#X connect 50 1 51 0;
#X connect 50 1 71 0;
#X connect 51 0 52 0;
#X connect 52 0 53 0;
#X connect 53 0 47 0;
#X connect 57 0 52 1;
#X connect 58 0 59 0;
#X connect 59 0 66 0;
#X connect 60 0 66 0;
#X connect 62 0 63 0;
#X connect 63 0 57 0;
#X connect 65 0 36 0;
#X connect 66 0 62 0;
#X connect 68 0 67 0;
#X connect 70 0 68 0;
#X connect 70 0 45 0;
#X connect 70 0 48 0;
#X connect 71 0 68 0;
#X connect 76 0 45 1;
#X connect 76 0 68 1;
#X connect 77 0 46 0;
#X connect 78 0 43 1;
#X connect 79 0 42 1;
#X connect 79 0 41 1;
#X coords 0 -1 1 1 196 92 1 140 200;
