#N canvas 456 292 497 487 10;
#N canvas 0 22 450 278 (subpatch) 0;
#X array \$0. 221 float 2;
#X coords 0 1 220 -1 220 100 1 0 0;
#X restore 124 143 graph;
#X obj 286 268 metro;
#X floatatom 305 124 4 1 120 0 - - -, f 4;
#X obj 305 56 loadbang;
#X obj 286 124 tgl 15 0 empty empty empty 17 7 0 10 -228856 -1 -1 1
1;
#X obj 96 56 inlet~;
#X text 245 124 On/Off;
#X obj 198 56 switch~;
#X obj 124 132 cnv 9 15 9 empty empty empty 20 12 0 14 -262144 -66577
0;
#X text 19 120 There is a white canvas here -->, f 16;
#X obj 241 295 timer, f 8;
#X obj 241 268 bang~;
#X obj 241 322 t b f;
#X msg 241 349 2, f 2;
#X obj 241 376 -, f 5;
#N canvas 358 136 327 185 writer 0;
#X obj 69 56 inlet~;
#X obj 69 110 outlet~;
#X obj 83 83 delwrite~ \$0-compensation 100;
#X connect 0 0 1 0;
#X connect 0 0 2 0;
#X restore 96 354 pd writer;
#N canvas 358 344 369 185 reader 0;
#X obj 71 47 inlet~;
#X obj 152 47 inlet;
#X obj 152 74 delread~ \$0-compensation;
#X obj 152 101 outlet~;
#X text 51 67 Intentionally left unconnected, f 13;
#X connect 1 0 2 0;
#X connect 2 0 3 0;
#X restore 96 381 pd reader;
#X obj 96 408 tabwrite~ \$0.;
#X obj 369 170 t b f, f 6;
#X obj 369 224 /, f 6;
#X msg 369 197 1000;
#X obj 369 143 clip 1 120;
#X msg 305 83 10, f 2;
#X text 332 124 Hz;
#X text 119 267 All of this compensates for visual jitter that would
be caused by mismatched update rates between control and audio., f
18;
#X connect 1 0 10 1;
#X connect 1 0 17 0;
#X connect 2 0 21 0;
#X connect 3 0 22 0;
#X connect 4 0 1 0;
#X connect 4 0 7 0;
#X connect 5 0 15 0;
#X connect 10 0 12 0;
#X connect 11 0 10 0;
#X connect 12 0 13 0;
#X connect 12 1 14 1;
#X connect 13 0 14 0;
#X connect 14 0 16 1;
#X connect 15 0 16 0;
#X connect 16 0 17 0;
#X connect 18 0 20 0;
#X connect 18 1 19 1;
#X connect 19 0 1 1;
#X connect 20 0 19 0;
#X connect 21 0 18 0;
#X connect 22 0 2 0;
#X coords 0 -1 1 1 228 127 1 120 120;
