#N canvas 331 250 630 536 10;
#X obj 93 27 inlet;
#X text 85 129 note;
#X floatatom 51 131 5 0 0 0 - - -, f 5;
#X text 237 131 velocity;
#X floatatom 200 133 5 0 0 0 - - -, f 5;
#X obj 52 212 osc~;
#X obj 51 172 mtof;
#X obj 196 162 > 0;
#X obj 71 478 throw~ voices;
#X obj 72 432 *~;
#X msg 129 246 1;
#X msg 170 247 0;
#X msg 360 406 0;
#X obj 399 407 bng 15 250 50 0 empty empty empty 17 7 0 10 -262144
-1 -1;
#X obj 225 209 change;
#X obj 227 248 route 1;
#X obj 312 255 bng 15 250 50 0 empty empty empty 17 7 0 10 -262144
-1 -1;
#X msg 234 430 1;
#X obj 200 274 bng 15 250 50 0 empty empty empty 17 7 0 10 -262144
-1 -1;
#X obj 129 220 route 1;
#X obj 192 227 bng 15 250 50 0 empty empty empty 17 7 0 10 -262144
-1 -1;
#X obj 195 186 t f f;
#X obj 173 303 adsr-lin-slider~ 10 10 100 100;
#X text 337 484 enable dsp only when playing;
#X text 236 479 switch~;
#X obj 93 59 unpack f f;
#X connect 0 0 25 0;
#X connect 2 0 6 0;
#X connect 4 0 7 0;
#X connect 5 0 9 0;
#X connect 6 0 5 0;
#X connect 7 0 21 0;
#X connect 9 0 8 0;
#X connect 10 0 22 0;
#X connect 11 0 22 0;
#X connect 14 0 15 0;
#X connect 14 0 16 0;
#X connect 15 0 18 0;
#X connect 15 0 17 0;
#X connect 19 0 10 0;
#X connect 19 1 11 0;
#X connect 19 1 20 0;
#X connect 21 0 19 0;
#X connect 21 1 14 0;
#X connect 22 0 9 1;
#X connect 22 1 12 0;
#X connect 22 1 13 0;
#X connect 25 0 2 0;
#X connect 25 1 4 0;
